<?xml version="1.0" encoding="utf-8"?>
<!-- Generator: Adobe Illustrator 13.0.0, SVG Export Plug-In . SVG Version: 6.00 Build 14948)  -->
<!DOCTYPE svg PUBLIC "-//W3C//DTD SVG 1.1//EN" "http://www.w3.org/Graphics/SVG/1.1/DTD/svg11.dtd">
<svg version="1.1" id="Layer_1" xmlns="http://www.w3.org/2000/svg" xmlns:xlink="http://www.w3.org/1999/xlink" x="0px" y="0px"
	 width="21px" height="30px" viewBox="0 0 21 30" enable-background="new 0 0 21 30" xml:space="preserve">

<path fill-rule="evenodd" fill="#4f61e1" clip-rule="evenodd" d="M19,30h-7v-2h7v-8h2v8v2H19z M15.901,27.015H5.075
	c-1.152,0-2.085-0.821-2.085-1.832V4.837c0-1.012,0.933-1.831,2.085-1.831H15.9c1.152,0,2.086,0.819,2.086,1.831v20.346
	C17.986,26.193,17.054,27.015,15.901,27.015z M16,5H5v20h11V5z M13.996,12.009h-7.01V10.01h7.01V12.009z M13.996,16.014h-7.01V13.99
	h7.01V16.014z M13.996,20.01h-7.01v-2.014h7.01V20.01z M2,10H0V2V0h2h7v2H2V10z"/>
</svg>
